<?xml version="1.0" encoding="utf-8"?>
<!-- Generator: Adobe Illustrator 21.0.2, SVG Export Plug-In . SVG Version: 6.00 Build 0)  -->
<svg version="1.1" id="Capa_1" xmlns="http://www.w3.org/2000/svg" xmlns:xlink="http://www.w3.org/1999/xlink" x="0px" y="0px"
	 viewBox="0 0 19 18.4" style="enable-background:new 0 0 19 18.4;" xml:space="preserve">
<style type="text/css">
	.st0{fill:#C6C6C6;}
</style>
<g>
	<path class="st0" d="M18.8,9c0.3-0.4,0.3-1-0.1-1.3l-8.5-7.4c-0.4-0.3-1-0.3-1.4,0L0.3,8.1c-0.4,0.3-0.4,0.9,0,1.3l0.2,0.2
		C0.8,10,1.4,10,1.7,9.7l0.6-0.6v8.3c0,0.5,0.4,0.9,0.9,0.9h3.3c0.5,0,0.9-0.4,0.9-0.9v-5.8h4.2v5.8c0,0.5,0.4,0.9,0.9,0.9h3.5
		c0.5,0,0.9-0.4,0.9-0.9V9.2c0,0,0.2,0.2,0.4,0.3c0.2,0.2,0.7,0,1-0.3L18.8,9z"/>
</g>
</svg>
