<?xml version="1.0" encoding="utf-8"?>
<!-- Generator: Adobe Illustrator 21.0.2, SVG Export Plug-In . SVG Version: 6.00 Build 0)  -->
<svg version="1.1" id="Layer_1" xmlns="http://www.w3.org/2000/svg" xmlns:xlink="http://www.w3.org/1999/xlink" x="0px" y="0px"
	 viewBox="0 0 43 32.9" style="enable-background:new 0 0 43 32.9;" xml:space="preserve">
<style type="text/css">
	.st0{fill:#656565;}
</style>
<g transform="translate(1 1)">
	<g>
		<g>
			<path class="st0" d="M41.4,9.5l-6.2-6.9c-0.5-0.5-1.1-0.8-1.8-0.8h-6.6c-1.1,0-2,0.9-2,2V19h-3.5l2.7-18.6h4.4
				c0.4,0,0.7-0.3,0.7-0.7S28.8-1,28.3-1h-5h-0.7H19c-0.3,0-0.6,0.1-0.6,0.4l-1.1,2.7c-0.1,0.3-0.4,0.4-0.6,0.4H2.6
				C2.3,2.6,2,2.7,1.9,3L-1,10.2c0,0.1,0,0.3,0,0.4l2.1,9.3v6c0,0.9,0.8,1.7,1.7,1.7h0.5c0.3,2.4,2.4,4.3,5,4.3s4.6-1.8,5-4.3h15.1
				c0.3,2.4,2.4,4.3,5,4.3s4.6-1.8,5-4.3h1.9c0.9,0,1.7-0.8,1.8-1.6V11.2C42,10.5,41.8,9.9,41.4,9.5z M40.5,11.1v2.2H29.8V6.2h6.5
				l3.9,4.3c0.1,0,0.1,0.1,0.1,0.1c0,0,0,0.1,0,0.1C40.5,10.8,40.5,11,40.5,11.1z M1.1,13.3C1.1,13.3,1.1,13.3,1.1,13.3l10.8,0
				c0.4,0,0.7-0.3,0.7-0.7c0-0.4-0.3-0.7-0.7-0.7H1.1c-0.1,0-0.3,0-0.4,0.1l-0.3-1.4l0.3-0.8h7.6C8.7,9.7,9,9.4,9,9
				c0-0.4-0.3-0.7-0.7-0.7h-7L3.1,4h13.6c0.9,0,1.6-0.5,1.9-1.3l0.9-2.3h3L19.8,19H2.4L1.1,13.3z M8.3,30.5c-2,0-3.6-1.6-3.6-3.6
				c0-2,1.6-3.6,3.6-3.6c2,0,3.6,1.6,3.6,3.6C11.9,28.9,10.3,30.5,8.3,30.5z M33.3,30.5c-2,0-3.6-1.6-3.6-3.6c0-2,1.6-3.6,3.6-3.6
				c2,0,3.6,1.6,3.6,3.6C36.9,28.9,35.3,30.5,33.3,30.5z M40.2,26.2h-1.9c-0.3-2.4-2.4-4.3-5-4.3c0,0,0,0,0,0c0,0,0,0,0,0
				c-2.5,0-4.6,1.9-4.9,4.3H13.3c-0.3-2.3-2.2-4.1-4.5-4.3c0,0,0,0-0.1,0c-0.1,0-0.1,0-0.2,0c-0.1,0-0.2,0-0.2,0c-0.1,0-0.2,0-0.2,0
				c-0.1,0-0.1,0-0.2,0c0,0,0,0-0.1,0c-2.3,0.2-4.2,2-4.5,4.3H2.9c-0.1,0-0.3-0.1-0.3-0.3v-5.4h17.9h5.7V3.9c0-0.4,0.2-0.6,0.6-0.6
				h6.6c0.2,0,0.5,0.1,0.7,0.3l1,1.1h-5.5c-0.6,0-1.2,0.6-1.2,1.2v7.6c0,0.6,0.6,1.2,1.2,1.2h10.9v3.6h-3.6c-0.4,0-0.7,0.3-0.7,0.7
				c0,0.4,0.3,0.7,0.7,0.7h3.6v6.2C40.5,26,40.4,26.2,40.2,26.2z"/>
		</g>
	</g>
</g>
</svg>
