<?xml version="1.0" encoding="utf-8"?>
<!-- Generator: Adobe Illustrator 21.0.2, SVG Export Plug-In . SVG Version: 6.00 Build 0)  -->
<svg version="1.1" id="Layer_1" xmlns="http://www.w3.org/2000/svg" xmlns:xlink="http://www.w3.org/1999/xlink" x="0px" y="0px"
	 viewBox="0 0 43 38.4" style="enable-background:new 0 0 43 38.4;" xml:space="preserve">
<style type="text/css">
	.st0{fill:#656565;}
</style>
<g transform="translate(0 1)">
	<g>
		<g>
			<path class="st0" d="M42.3,18.3L35.8,11c-0.5-0.5-1.2-0.8-1.9-0.8H27c-1.2,0-2.1,1-2.1,2.1v9.3L21.8,16l1.6-5.5
				c0.1-0.3,0-0.5-0.2-0.8l-4.5-4.5C18.5,5.1,18.4,5,18.3,5L14,3.6c0,0-0.1-0.1-0.1-0.1c-0.1,0-0.1,0-0.2,0l-2.1-0.7
				c-0.2,0-0.3-0.1-0.5,0L7.6,3.7l2.1-3.6c0.2-0.2,0.2-0.5,0-0.8C9.6-0.8,9.3-1,9-1H0.8C0.3-1,0-0.7,0-0.2v13.6v10.5v0.8v6.5
				c0,1,0.8,1.8,1.8,1.8h0.5c0.4,2.6,2.5,4.5,5.2,4.5s4.9-1.9,5.2-4.5h15.9c0.4,2.6,2.5,4.5,5.2,4.5s4.9-1.9,5.2-4.5h2
				c1,0,1.8-0.8,1.9-1.8V20.8v-0.8V20C43,19.3,42.8,18.7,42.3,18.3z M41.1,19.3h-11v-7.5h3.8c0.3,0,0.5,0.1,0.8,0.3L41.1,19.3z
				 M24.3,23.9H12.8v-1.5c0,0,0.1,0,0.1-0.1l6.8-0.8c0.4,0,0.6-0.2,0.7-0.5l0.8-2.9L24.3,23.9z M4.5,23.9v-4.5l2.3,0.8v3.7H4.5z
				 M8.3,19.7v-2.6c0-0.8,0.7-1.5,1.5-1.5c0.3,0,0.5,0.1,0.7,0.2c0.1,0,0.2,0.1,0.2,0.2c0.1,0.1,0.2,0.2,0.3,0.3
				c0.2,0.2,0.3,0.5,0.3,0.8v6.8h-3V19.7z M21.8,10.4L19,20.1l-6.1,0.7h-0.1v-3.7c0-1.3-0.8-2.4-2-2.8l3.2-9.1l3.6,1.2L21.8,10.4z
				 M11.3,4.3l1.3,0.4l-3.4,9.4c-1.4,0.3-2.5,1.5-2.5,3v1.5L5,17.9l-3.4-4.7l2-6.7l2.6-0.8c0.1,0,0.1-0.1,0.2-0.1L11.3,4.3z
				 M1.5,0.5h6.3L5.6,4.3L2.8,5C2.6,5.1,2.3,5.3,2.3,5.6L1.5,8.1V0.5z M1.5,15.6L3,17.8v6.1H1.5V15.6z M7.5,35.9
				c-2.1,0-3.8-1.7-3.8-3.8s1.7-3.8,3.8-3.8s3.8,1.7,3.8,3.8C11.3,34.2,9.6,35.9,7.5,35.9z M33.9,35.9c-2.1,0-3.8-1.7-3.8-3.8
				s1.7-3.8,3.8-3.8s3.8,1.7,3.8,3.8C37.7,34.2,36,35.9,33.9,35.9z M41.1,31.4h-2c-0.4-2.6-2.5-4.5-5.2-4.5c0,0,0,0,0,0c0,0,0,0,0,0
				c-2.6,0-4.8,2-5.2,4.5H12.7c-0.3-2.4-2.3-4.3-4.7-4.5c0,0,0,0-0.1,0c-0.1,0-0.1,0-0.2,0c-0.1,0-0.2,0-0.3,0c-0.1,0-0.2,0-0.3,0
				c-0.1,0-0.1,0-0.2,0c0,0,0,0-0.1,0c-2.5,0.2-4.4,2.1-4.7,4.5H1.8c-0.2,0-0.3-0.2-0.3-0.3v-5.7h2.3h3.8H12h14.3v-0.5
				c0-0.1,0-0.3,0-0.4v-12c0-0.4,0.3-0.6,0.6-0.6h1.7v7.8c0,0.7,0.6,1.3,1.3,1.3h11.5v2.3h-3.8c-0.5,0-0.8,0.3-0.8,0.8
				s0.3,0.8,0.8,0.8h3.8v6.5C41.4,31.2,41.3,31.4,41.1,31.4z"/>
		</g>
	</g>
</g>
</svg>
