<?xml version="1.0" encoding="utf-8"?>
<!-- Generator: Adobe Illustrator 21.0.2, SVG Export Plug-In . SVG Version: 6.00 Build 0)  -->
<svg version="1.1" id="Слой_1" xmlns="http://www.w3.org/2000/svg" xmlns:xlink="http://www.w3.org/1999/xlink" x="0px" y="0px"
	 viewBox="0 0 20 12.8" style="enable-background:new 0 0 20 12.8;" xml:space="preserve">
<style type="text/css">
	.st0{fill:#C6C6C6;}
</style>
<g>
	<path class="st0" d="M0,1.8C1.4,2.9,2.7,4,4,5c1.7,1.3,3.3,2.6,5,4c0.4,0.4,0.6,0.4,1,0.1c3.1-2.3,6.3-4.5,9.4-6.8
		c0.1-0.1,0.4-0.2,0.6-0.4c0,0.3,0.1,0.4,0.1,0.6c0,3,0,5.9,0,8.9c0,1.1-0.4,1.5-1.5,1.5c-5.7,0-11.3,0-16.9,0
		c-1.1,0-1.5-0.4-1.5-1.5c0-3,0-5.9,0-8.9C0,2.3,0,2.2,0,1.8z"/>
	<path class="st0" d="M19.5,0.4c-0.2,0.1-0.4,0.3-0.6,0.4c-3.1,2.2-6.1,4.4-9.2,6.6C9.3,7.5,9.3,7.5,9,7.2C6.3,5,3.6,2.8,0.9,0.6
		C0.8,0.4,0.5,0.4,0.4,0.3C0.5,0.2,0.5,0.1,0.6,0c6.2,0,12.5,0,18.7,0C19.3,0.2,19.4,0.3,19.5,0.4z"/>
</g>
</svg>
