<?xml version="1.0" encoding="utf-8"?>
<!-- Generator: Adobe Illustrator 21.0.2, SVG Export Plug-In . SVG Version: 6.00 Build 0)  -->
<svg version="1.1" id="Слой_1" xmlns="http://www.w3.org/2000/svg" xmlns:xlink="http://www.w3.org/1999/xlink" x="0px" y="0px"
	 viewBox="0 0 21 13.4" style="enable-background:new 0 0 21 13.4;" xml:space="preserve">
<style type="text/css">
	.st0{fill:#FF0000;}
</style>
<g>
	<path class="st0" d="M0,1.9c1.4,1.1,2.8,2.2,4.1,3.3C5.9,6.6,7.6,8,9.4,9.4c0.4,0.4,0.6,0.4,1,0.1C13.7,7,17,4.7,20.3,2.3
		c0.1-0.1,0.4-0.2,0.6-0.4c0,0.3,0.1,0.4,0.1,0.6c0,3.1,0,6.2,0,9.3c0,1.1-0.4,1.6-1.6,1.6c-6,0-11.9,0-17.7,0
		c-1.2,0-1.6-0.4-1.6-1.6c0-3.1,0-6.2,0-9.3C0,2.5,0,2.3,0,1.9z"/>
	<path class="st0" d="M20.5,0.4c-0.2,0.1-0.4,0.3-0.7,0.4c-3.2,2.3-6.4,4.6-9.7,6.9C9.8,7.9,9.7,7.8,9.4,7.6C6.6,5.3,3.8,3,0.9,0.6
		C0.8,0.4,0.6,0.4,0.4,0.3C0.5,0.2,0.6,0.1,0.6,0c6.6,0,13.1,0,19.7,0C20.3,0.2,20.3,0.3,20.5,0.4z"/>
</g>
</svg>
