<?xml version="1.0" encoding="utf-8"?>
<!-- Generator: Adobe Illustrator 21.0.2, SVG Export Plug-In . SVG Version: 6.00 Build 0)  -->
<svg version="1.1" id="Layer_1" xmlns="http://www.w3.org/2000/svg" xmlns:xlink="http://www.w3.org/1999/xlink" x="0px" y="0px"
	 viewBox="0 0 20 17.6" style="enable-background:new 0 0 20 17.6;" xml:space="preserve">
<style type="text/css">
	.st0{fill:#C6C6C6;}
</style>
<g>
	<g>
		<path class="st0" d="M19.1,3.5h-1.8c-0.5,0-0.9,0.4-0.9,0.9v2.6h-0.9h-2.6V5.2c0.3-0.1,0.6-0.4,0.6-0.8c0-0.5-0.4-0.9-0.9-0.9h0
			l-1-2.1c0.1-0.2,0.2-0.3,0.2-0.6c0-0.5-0.4-0.9-0.9-0.9h-0.6H6.2H5.6C5.1,0,4.7,0.4,4.7,0.9c0,0.2,0.1,0.4,0.2,0.6l-1,2.1h0
			c-0.5,0-0.9,0.4-0.9,0.9c0,0.4,0.2,0.7,0.6,0.8v1.8H0.9C0.4,7.1,0,7.5,0,7.9v8.8c0,0.5,0.4,0.9,0.9,0.9s0.9-0.4,0.9-0.9V8.8h1.8
			v2.6c0,0.5,0.4,0.9,0.9,0.9h7.6c0.5,0,0.9-0.4,0.9-0.9V8.8h1.8v7.9c0,0.5,0.4,0.9,0.9,0.9c0.5,0,0.9-0.4,0.9-0.9V8.8h0.9
			c0.5,0,0.9-0.4,0.9-0.9V5.3h0.9c0.5,0,0.9-0.4,0.9-0.9S19.6,3.5,19.1,3.5z"/>
	</g>
</g>
</svg>
