<?xml version="1.0" encoding="utf-8"?>
<!-- Generator: Adobe Illustrator 21.0.2, SVG Export Plug-In . SVG Version: 6.00 Build 0)  -->
<svg version="1.1" id="Слой_1" xmlns="http://www.w3.org/2000/svg" xmlns:xlink="http://www.w3.org/1999/xlink" x="0px" y="0px"
	 viewBox="0 0 16 15.8" style="enable-background:new 0 0 16 15.8;" xml:space="preserve">
<style type="text/css">
	.st0{fill:#C6C6C6;}
</style>
<g>
	<path class="st0" d="M7.9,15.8c-2.5,0-5,0-7.5,0c-0.3,0-0.5-0.1-0.4-0.4c0.4-2.5,1.4-4.5,3.6-5.8C4,9.4,4.2,9.4,4.5,9.7
		c2.1,1.5,5,1.5,7.1,0c0.3-0.2,0.4-0.1,0.6-0.1c1.4,0.7,2.3,1.8,3,3.2c0.4,0.8,0.6,1.7,0.8,2.6c0.1,0.4-0.1,0.4-0.4,0.4
		C13,15.8,10.5,15.8,7.9,15.8z"/>
	<path class="st0" d="M3.3,4.7C3.3,2.1,5.4,0,8,0c2.5,0,4.6,1.9,4.7,4.7c0,2.6-2.1,4.7-4.7,4.7S3.3,7.2,3.3,4.7z"/>
</g>
</svg>
