<?xml version="1.0" encoding="utf-8"?>
<!-- Generator: Adobe Illustrator 21.0.2, SVG Export Plug-In . SVG Version: 6.00 Build 0)  -->
<svg version="1.1" id="Слой_1" xmlns="http://www.w3.org/2000/svg" xmlns:xlink="http://www.w3.org/1999/xlink" x="0px" y="0px"
	 viewBox="0 0 18 19.4" style="enable-background:new 0 0 18 19.4;" xml:space="preserve">
<style type="text/css">
	.st0{fill:#FF0000;}
</style>
<path class="st0" d="M17.6,15.1c-0.8-0.9-1.7-1.7-2.7-2.3c-0.9-0.5-1.9-0.4-2.6,0.4c-0.2,0.2-0.5,0.5-0.8,0.8
	c-0.6,0.5-1.3,0.7-2,0.3c-1.3-0.7-2.3-1.8-3.3-3C6.1,11.2,6.1,11.1,6,11c-0.5-0.7-1-1.3-1.2-2.2C4.6,8,4.7,7.4,5.4,6.8
	c0.3-0.3,0.7-0.5,1-0.9c0.6-0.5,0.9-1.2,0.6-2C6.7,2.5,5.9,1.4,4.9,0.4C4.3-0.1,3.6-0.1,3,0.4C2.7,0.6,2.5,0.9,2.1,1.1
	C1.3,1.8,0.7,2.7,0.4,3.8C-0.5,6.6,0.3,9,1.8,11.3c0.1,0.2,0.2,0.3,0.2,0.4c1.1,1.6,2.4,3.2,3.9,4.5c1.2,1.1,2.5,1.9,4,2.6
	c1.7,0.7,3.4,0.8,5.1,0.1c1-0.4,1.7-1.2,2.5-1.9C18.1,16.5,18.2,15.8,17.6,15.1z"/>
</svg>
